# xmcd
#
# Track frame offsets:
#	150
#	13388
#	23625
#	39900
#	59475
#	77925
#	98025
#	113025
#	129150
#	142125
#	150525
#	167775
#
# Disc length: 2469 seconds
#
# Revision: 1
# Processed by: cddbd v1.5.2PL0 Copyright (c) Steve Scherf et al.
# Submitted via: audiograbber 1.83.01
#
DISCID=9709a30c
DTITLE=The Mason Rack Band - Big Bad Machine
DYEAR=2015
DGENRE=Blues
TTITLE0=Big Bad Machine
TTITLE1=30 Day Run
TTITLE2=Twinkle
TTITLE3=Bear Witness
TTITLE4=Pentatonic Pirate
TTITLE5=Come On Up
TTITLE6=It Hurts
TTITLE7=Naughty Girl
TTITLE8=Little Digger
TTITLE9=Hopscotch In High Heels
TTITLE10=I Do Believe
TTITLE11=Waltzing Matilda
EXTD=
EXTT0=
EXTT1=
EXTT2=
EXTT3=
EXTT4=
EXTT5=
EXTT6=
EXTT7=
EXTT8=
EXTT9=
EXTT10=
EXTT11=
PLAYORDER=
